<?xml version="1.0" ?>
<!-- Uploaded to: SVG Repo, www.svgrepo.com, Generator: SVG Repo Mixer Tools -->
<svg fill="#000000" width="800px" height="800px" viewBox="0 0 100 100" version="1.1" xml:space="preserve" xmlns="http://www.w3.org/2000/svg" xmlns:xlink="http://www.w3.org/1999/xlink">
<g id="tree"/>
<g id="plant"/>
<g id="flower"/>
<g id="flower_pot">
<g>
<path d="M65,21c0-2.1-2.7-3.5-5.3-4c1.5-2.2,2.4-5.1,0.9-6.6c-1.5-1.5-4.4-0.6-6.6,0.9C53.5,8.7,52.1,6,50,6s-3.5,2.7-4,5.3    c-2.2-1.5-5.1-2.4-6.6-0.9c-1.5,1.5-0.6,4.4,0.9,6.6c-2.6,0.5-5.3,1.9-5.3,4s2.7,3.5,5.3,4c-1.5,2.2-2.4,5.1-0.9,6.6    c0.5,0.5,1.3,0.8,2.1,0.8c1.4,0,3.1-0.7,4.5-1.7c0.4,2.2,1.4,4.4,3,5.1v19.8l-1.8-1.8c0.7-1.5,1.7-4.7,0.1-8    c-2.1-4.2-8.2-7.5-8.5-7.6c-0.3-0.1-0.6-0.2-0.9,0c-0.3,0.1-0.5,0.4-0.5,0.7c0,0.3-1.1,7.2,0.9,11.4c2,3.9,6.3,4.6,7.3,4.8    l3.4,3.4V64H36c-0.6,0-1,0.4-1,1v6c0,0.6,0.4,1,1,1h0.1L38,93.1c0,0.5,0.5,0.9,1,0.9h3.4c1.4,0,2.6-0.9,3-2.2    c0.2-0.5,0.6-0.8,1.1-0.8h6.8c0.5,0,1,0.3,1.1,0.8c0.4,1.3,1.7,2.2,3,2.2H61c0.5,0,0.9-0.4,1-0.9L63.9,72H64c0.6,0,1-0.4,1-1v-6    c0-0.6-0.4-1-1-1H51V53.4l3.4-3.4c1.1-0.1,5.4-0.8,7.3-4.8c2.1-4.2,1-11.1,0.9-11.4c-0.1-0.3-0.3-0.6-0.5-0.7    c-0.3-0.1-0.6-0.1-0.9,0c-0.3,0.1-6.4,3.4-8.5,7.6c-1.7,3.3-0.6,6.6,0.1,8L51,50.6V35.8c1.6-0.7,2.6-2.9,3-5.1    c1.4,1,3.1,1.7,4.5,1.7c0.8,0,1.5-0.2,2.1-0.8c0,0,0,0,0,0c1.5-1.5,0.6-4.4-0.9-6.6C62.3,24.5,65,23.1,65,21z M40.1,49.3    c-1.3-2.6-1.1-6.6-0.9-8.7c1.8,1.1,5.1,3.4,6.3,6c1.3,2.6,0.4,5.2-0.1,6.3C44.1,52.7,41.4,52,40.1,49.3z M60.1,92h-2.5    c-0.5,0-1-0.3-1.1-0.8c-0.4-1.3-1.7-2.2-3-2.2h-6.8c-1.4,0-2.6,0.9-3,2.2c-0.2,0.5-0.6,0.8-1.1,0.8h-2.5l-1.8-20h23.8L60.1,92z     M63,66v4H37v-4H63z M54.6,41.6c1.3-2.6,4.5-4.8,6.3-6c0.2,2.1,0.3,6.1-0.9,8.7c-1.3,2.6-4,3.4-5.3,3.6    C54.1,46.8,53.3,44.2,54.6,41.6z M59.2,11.8c0.5,0.5-0.1,3-1.8,5c-0.1,0-0.1,0-0.2,0c-0.2,0-0.5,0-0.7,0.1c-0.1,0-0.2,0-0.3,0    c-0.2,0-0.4,0.1-0.5,0.1c-0.1,0-0.2,0-0.3,0.1c-0.2,0.1-0.3,0.1-0.5,0.2c-0.1,0-0.1,0-0.2,0.1c-0.2,0.1-0.4,0.2-0.6,0.3    c0,0,0,0,0,0c-0.2-0.3-0.4-0.5-0.7-0.7c0,0,0,0,0,0c0.1-0.2,0.2-0.4,0.3-0.6c0-0.1,0-0.1,0.1-0.2c0.1-0.2,0.1-0.3,0.2-0.5    c0-0.1,0-0.2,0.1-0.3c0-0.2,0.1-0.3,0.1-0.5c0-0.1,0-0.2,0-0.3c0-0.2,0-0.4,0.1-0.7c0-0.1,0-0.1,0-0.2    C56.2,11.9,58.6,11.3,59.2,11.8z M51.4,24c-0.1,0.1-0.2,0.1-0.3,0.1c-0.7,0.2-1.4,0.2-2.2,0c-0.1,0-0.2-0.1-0.3-0.1c0,0,0,0,0,0    c0,0,0,0,0,0c-0.7-0.3-1.2-0.8-1.5-1.5c0,0,0,0,0,0c0,0,0,0,0,0c-0.1-0.1-0.1-0.2-0.1-0.3c0,0,0,0,0,0c-0.1-0.4-0.2-0.7-0.2-1.1    s0.1-0.7,0.2-1.1c0-0.1,0.1-0.2,0.1-0.3c0,0,0,0,0,0c0,0,0,0,0,0c0.3-0.7,0.8-1.2,1.5-1.5c0,0,0,0,0,0c0,0,0,0,0,0    c0.1-0.1,0.2-0.1,0.3-0.1c0.7-0.2,1.4-0.2,2.2,0c0.1,0,0.2,0.1,0.3,0.1c0,0,0,0,0,0c0,0,0,0,0,0c0.7,0.3,1.2,0.8,1.5,1.5    c0,0,0,0,0,0c0,0,0,0,0,0c0.1,0.1,0.1,0.2,0.1,0.3c0.1,0.4,0.2,0.7,0.2,1.1s-0.1,0.7-0.2,1.1c0,0.1-0.1,0.2-0.1,0.3c0,0,0,0,0,0    c0,0,0,0,0,0C52.6,23.1,52.1,23.6,51.4,24C51.4,24,51.4,24,51.4,24C51.4,24,51.4,24,51.4,24z M47.8,13.2C47.8,10.4,49.2,8,50,8    s2.2,2.4,2.2,5.2c0,0,0,0.1,0,0.1c0,0,0,0.1,0,0.1c0,0.3,0,0.6-0.1,0.9c0,0.1,0,0.2,0,0.2c0,0.2-0.1,0.4-0.1,0.5    c0,0.1,0,0.2-0.1,0.2c-0.1,0.2-0.1,0.3-0.2,0.4c0,0-0.1,0.1-0.1,0.1c0,0,0,0,0,0c-0.5-0.2-1.1-0.3-1.6-0.3c-0.5,0-1.1,0.1-1.6,0.3    c0,0,0,0,0,0c0,0-0.1-0.1-0.1-0.1c-0.1-0.1-0.1-0.3-0.2-0.4c0-0.1-0.1-0.1-0.1-0.2c0-0.2-0.1-0.3-0.1-0.5c0-0.1,0-0.2,0-0.2    c0-0.3-0.1-0.6-0.1-0.9c0,0,0-0.1,0-0.1C47.8,13.3,47.8,13.3,47.8,13.2z M40.8,11.8c0.5-0.5,3,0.1,5,1.8c0,0.1,0,0.2,0,0.2    c0,0.2,0,0.5,0.1,0.7c0,0.1,0,0.2,0,0.3c0,0.2,0.1,0.4,0.1,0.5c0,0.1,0,0.2,0.1,0.3c0.1,0.2,0.1,0.3,0.2,0.5c0,0.1,0,0.1,0.1,0.2    c0.1,0.2,0.2,0.4,0.3,0.6c0,0,0,0,0,0c-0.3,0.2-0.5,0.4-0.7,0.7c0,0,0,0,0,0c-0.2-0.1-0.4-0.2-0.6-0.3c-0.1,0-0.1,0-0.2-0.1    c-0.2-0.1-0.3-0.1-0.5-0.2c-0.1,0-0.2,0-0.3-0.1c-0.2,0-0.3-0.1-0.5-0.1c-0.1,0-0.2,0-0.3,0c-0.2,0-0.4,0-0.7-0.1    c-0.1,0-0.1,0-0.2,0C40.9,14.8,40.3,12.4,40.8,11.8z M37,21c0-0.8,2.4-2.2,5.2-2.2c0,0,0.1,0,0.1,0c0,0,0.1,0,0.1,0    c0.3,0,0.6,0,0.9,0.1c0.1,0,0.2,0,0.2,0c0.2,0,0.4,0.1,0.5,0.1c0.1,0,0.2,0,0.2,0.1c0.2,0.1,0.3,0.1,0.4,0.2c0,0,0.1,0,0.1,0.1    c0,0,0,0,0,0c-0.2,0.5-0.3,1.1-0.3,1.6s0.1,1.1,0.3,1.6c0,0,0,0,0,0c0,0-0.1,0.1-0.1,0.1c-0.1,0.1-0.3,0.2-0.4,0.2    c-0.1,0-0.1,0.1-0.2,0.1c-0.2,0-0.3,0.1-0.5,0.1c-0.1,0-0.2,0-0.2,0c-0.3,0-0.6,0.1-0.9,0.1c0,0-0.1,0-0.1,0c0,0-0.1,0-0.1,0    C39.4,23.2,37,21.8,37,21z M40.8,30.2c-0.5-0.5,0.1-3,1.8-5c0.1,0,0.1,0,0.2,0c0.2,0,0.5,0,0.7-0.1c0.1,0,0.2,0,0.3,0    c0.2,0,0.4-0.1,0.5-0.1c0.1,0,0.2,0,0.3-0.1c0.2-0.1,0.3-0.1,0.5-0.2c0.1,0,0.1,0,0.2-0.1c0.2-0.1,0.4-0.2,0.6-0.3c0,0,0,0,0,0    c0.2,0.3,0.4,0.5,0.7,0.7c0,0,0,0,0,0c-0.1,0.2-0.2,0.4-0.3,0.6c0,0.1,0,0.1-0.1,0.2c-0.1,0.2-0.1,0.3-0.2,0.5    c0,0.1,0,0.2-0.1,0.3c0,0.2-0.1,0.3-0.1,0.5c0,0.1,0,0.2,0,0.3c0,0.2,0,0.4-0.1,0.7c0,0.1,0,0.1,0,0.2    C43.8,30.1,41.4,30.7,40.8,30.2z M52.2,28.8C52.2,31.6,50.8,34,50,34s-2.2-2.4-2.2-5.2c0,0,0-0.1,0-0.1c0,0,0-0.1,0-0.1    c0-0.3,0-0.6,0.1-0.9c0-0.1,0-0.2,0-0.2c0-0.2,0.1-0.4,0.1-0.5c0-0.1,0-0.2,0.1-0.2c0.1-0.2,0.1-0.3,0.2-0.4c0,0,0.1-0.1,0.1-0.1    c0,0,0,0,0,0c1.1,0.3,2.2,0.3,3.2,0c0,0,0,0,0,0c0,0,0.1,0.1,0.1,0.1c0.1,0.1,0.1,0.3,0.2,0.4c0,0.1,0.1,0.1,0.1,0.2    c0,0.2,0.1,0.3,0.1,0.5c0,0.1,0,0.2,0,0.2c0,0.3,0.1,0.6,0.1,0.9c0,0,0,0.1,0,0.1C52.2,28.7,52.2,28.7,52.2,28.8z M59.2,30.2    L59.2,30.2c-0.5,0.5-3-0.1-5-1.8c0-0.1,0-0.2,0-0.2c0-0.2,0-0.5-0.1-0.7c0-0.1,0-0.2,0-0.3c0-0.2-0.1-0.4-0.1-0.5    c0-0.1,0-0.2-0.1-0.3c-0.1-0.2-0.1-0.3-0.2-0.5c0-0.1,0-0.1-0.1-0.2c-0.1-0.2-0.2-0.4-0.3-0.6c0,0,0,0,0,0    c0.3-0.2,0.5-0.4,0.7-0.7c0,0,0,0,0,0c0.2,0.1,0.4,0.2,0.6,0.3c0.1,0,0.1,0,0.2,0.1c0.2,0.1,0.3,0.1,0.5,0.2c0.1,0,0.2,0,0.3,0.1    c0.2,0,0.3,0.1,0.5,0.1c0.1,0,0.2,0,0.3,0c0.2,0,0.4,0,0.7,0.1c0.1,0,0.1,0,0.2,0C59.1,27.2,59.7,29.6,59.2,30.2z M57.8,23.2    c0,0-0.1,0-0.1,0c0,0-0.1,0-0.1,0c-0.3,0-0.6,0-0.9-0.1c-0.1,0-0.2,0-0.2,0c-0.2,0-0.4-0.1-0.5-0.1c-0.1,0-0.2,0-0.2-0.1    c-0.2-0.1-0.3-0.1-0.4-0.2c0,0-0.1,0-0.1-0.1c0,0,0,0,0,0c0.2-0.5,0.3-1.1,0.3-1.6c0-0.5-0.1-1.1-0.3-1.6c0,0,0,0,0,0    c0,0,0.1-0.1,0.1-0.1c0.1-0.1,0.3-0.2,0.4-0.2c0.1,0,0.1-0.1,0.2-0.1c0.2,0,0.3-0.1,0.5-0.1c0.1,0,0.2,0,0.2,0    c0.3,0,0.6-0.1,0.9-0.1c0,0,0.1,0,0.1,0c0,0,0.1,0,0.1,0c2.8,0.1,5.2,1.4,5.2,2.2S60.6,23.2,57.8,23.2z"/>
<path d="M34,21c0-2.1-2.7-3.5-5.3-4c1.5-2.2,2.4-5.1,0.9-6.6c-1.5-1.5-4.4-0.6-6.6,0.9C22.5,8.7,21.1,6,19,6c-2.1,0-3.5,2.7-4,5.3    c-2.2-1.5-5.1-2.4-6.6-0.9c-1.5,1.5-0.6,4.4,0.9,6.6C6.7,17.5,4,18.9,4,21s2.7,3.5,5.3,4c-1.5,2.2-2.4,5.1-0.9,6.6    c0.5,0.5,1.3,0.8,2.1,0.8c1.4,0,3.1-0.7,4.5-1.7c0.4,2.2,1.4,4.4,3,5.1v19.8l-1.8-1.8c0.7-1.5,1.7-4.7,0.1-8    c-2.1-4.2-8.2-7.5-8.5-7.6c-0.3-0.1-0.6-0.2-0.9,0c-0.3,0.1-0.5,0.4-0.5,0.7c0,0.3-1.1,7.2,0.9,11.4c2,3.9,6.3,4.6,7.3,4.8    l3.4,3.4V64H5c-0.6,0-1,0.4-1,1v6c0,0.6,0.4,1,1,1h0.1L7,93.1c0,0.5,0.5,0.9,1,0.9h3.4c1.4,0,2.6-0.9,3-2.2    c0.2-0.5,0.6-0.8,1.1-0.8h6.8c0.5,0,1,0.3,1.1,0.8c0.4,1.3,1.7,2.2,3,2.2H30c0.5,0,0.9-0.4,1-0.9L32.9,72H33c0.6,0,1-0.4,1-1v-6    c0-0.6-0.4-1-1-1H20V53.4l3.4-3.4c1.1-0.1,5.4-0.8,7.3-4.8c2.1-4.2,1-11.1,0.9-11.4c-0.1-0.3-0.3-0.6-0.5-0.7    c-0.3-0.1-0.6-0.1-0.9,0c-0.3,0.1-6.4,3.4-8.5,7.6c-1.7,3.3-0.6,6.6,0.1,8L20,50.6V35.8c1.6-0.7,2.6-2.9,3-5.1    c1.4,1,3.1,1.7,4.5,1.7c0.8,0,1.5-0.2,2.1-0.8c0,0,0,0,0,0c1.5-1.5,0.6-4.4-0.9-6.6C31.3,24.5,34,23.1,34,21z M9.1,49.3    c-1.3-2.6-1.1-6.6-0.9-8.7c1.8,1.1,5.1,3.4,6.3,6c1.3,2.6,0.4,5.2-0.1,6.3C13.1,52.7,10.4,52,9.1,49.3z M29.1,92h-2.5    c-0.5,0-1-0.3-1.1-0.8c-0.4-1.3-1.7-2.2-3-2.2h-6.8c-1.4,0-2.6,0.9-3,2.2c-0.2,0.5-0.6,0.8-1.1,0.8H8.9L7.1,72h23.8L29.1,92z     M32,66v4H6v-4H32z M23.6,41.6c1.3-2.6,4.5-4.8,6.3-6c0.2,2.1,0.3,6.1-0.9,8.7c-1.3,2.6-4,3.4-5.3,3.6    C23.1,46.8,22.3,44.2,23.6,41.6z M28.2,11.8c0.5,0.5-0.1,3-1.8,5c-0.1,0-0.1,0-0.2,0c-0.2,0-0.5,0-0.7,0.1c-0.1,0-0.2,0-0.3,0    c-0.2,0-0.4,0.1-0.5,0.1c-0.1,0-0.2,0-0.3,0.1c-0.2,0.1-0.3,0.1-0.5,0.2c-0.1,0-0.1,0-0.2,0.1c-0.2,0.1-0.4,0.2-0.6,0.3    c0,0,0,0,0,0c-0.2-0.3-0.4-0.5-0.7-0.7c0,0,0,0,0,0c0.1-0.2,0.2-0.4,0.3-0.6c0-0.1,0-0.1,0.1-0.2c0.1-0.2,0.1-0.3,0.2-0.5    c0-0.1,0-0.2,0.1-0.3c0-0.2,0.1-0.3,0.1-0.5c0-0.1,0-0.2,0-0.3c0-0.2,0-0.4,0.1-0.7c0-0.1,0-0.1,0-0.2    C25.2,11.9,27.6,11.3,28.2,11.8z M20.4,24c-0.1,0.1-0.2,0.1-0.3,0.1c-0.7,0.2-1.4,0.2-2.2,0c-0.1,0-0.2-0.1-0.3-0.1c0,0,0,0,0,0    c0,0,0,0,0,0c-0.7-0.3-1.2-0.8-1.5-1.5c0,0,0,0,0,0c0,0,0,0,0,0c-0.1-0.1-0.1-0.2-0.1-0.3c0,0,0,0,0,0c-0.1-0.4-0.2-0.7-0.2-1.1    s0.1-0.7,0.2-1.1c0-0.1,0.1-0.2,0.1-0.3c0,0,0,0,0,0c0,0,0,0,0,0c0.3-0.7,0.8-1.2,1.5-1.5c0,0,0,0,0,0c0,0,0,0,0,0    c0.1-0.1,0.2-0.1,0.3-0.1c0.7-0.2,1.4-0.2,2.2,0c0.1,0,0.2,0.1,0.3,0.1c0,0,0,0,0,0c0,0,0,0,0,0c0.7,0.3,1.2,0.8,1.5,1.5    c0,0,0,0,0,0c0,0,0,0,0,0c0.1,0.1,0.1,0.2,0.1,0.3c0.1,0.4,0.2,0.7,0.2,1.1s-0.1,0.7-0.2,1.1c0,0.1-0.1,0.2-0.1,0.3c0,0,0,0,0,0    c0,0,0,0,0,0C21.6,23.1,21.1,23.6,20.4,24C20.4,24,20.4,24,20.4,24C20.4,24,20.4,24,20.4,24z M16.8,13.2C16.8,10.4,18.2,8,19,8    s2.2,2.4,2.2,5.2c0,0,0,0.1,0,0.1c0,0,0,0.1,0,0.1c0,0.3,0,0.6-0.1,0.9c0,0.1,0,0.2,0,0.2c0,0.2-0.1,0.4-0.1,0.5    c0,0.1,0,0.2-0.1,0.2c-0.1,0.2-0.1,0.3-0.2,0.4c0,0-0.1,0.1-0.1,0.1c0,0,0,0,0,0c-0.5-0.2-1.1-0.3-1.6-0.3c-0.5,0-1.1,0.1-1.6,0.3    c0,0,0,0,0,0c0,0-0.1-0.1-0.1-0.1c-0.1-0.1-0.1-0.3-0.2-0.4c0-0.1-0.1-0.1-0.1-0.2c0-0.2-0.1-0.3-0.1-0.5c0-0.1,0-0.2,0-0.2    c0-0.3-0.1-0.6-0.1-0.9c0,0,0-0.1,0-0.1C16.8,13.3,16.8,13.3,16.8,13.2z M9.8,11.8c0.5-0.5,3,0.1,5,1.8c0,0.1,0,0.2,0,0.2    c0,0.2,0,0.5,0.1,0.7c0,0.1,0,0.2,0,0.3c0,0.2,0.1,0.4,0.1,0.5c0,0.1,0,0.2,0.1,0.3c0.1,0.2,0.1,0.3,0.2,0.5c0,0.1,0,0.1,0.1,0.2    c0.1,0.2,0.2,0.4,0.3,0.6c0,0,0,0,0,0c-0.3,0.2-0.5,0.4-0.7,0.7c0,0,0,0,0,0c-0.2-0.1-0.4-0.2-0.6-0.3c-0.1,0-0.1,0-0.2-0.1    c-0.2-0.1-0.3-0.1-0.5-0.2c-0.1,0-0.2,0-0.3-0.1c-0.2,0-0.3-0.1-0.5-0.1c-0.1,0-0.2,0-0.3,0c-0.2,0-0.4,0-0.7-0.1    c-0.1,0-0.1,0-0.2,0C9.9,14.8,9.3,12.4,9.8,11.8z M6,21c0-0.8,2.4-2.2,5.2-2.2c0,0,0.1,0,0.1,0c0,0,0.1,0,0.1,0    c0.3,0,0.6,0,0.9,0.1c0.1,0,0.2,0,0.2,0c0.2,0,0.4,0.1,0.5,0.1c0.1,0,0.2,0,0.2,0.1c0.2,0.1,0.3,0.1,0.4,0.2c0,0,0.1,0,0.1,0.1    c0,0,0,0,0,0c-0.2,0.5-0.3,1.1-0.3,1.6s0.1,1.1,0.3,1.6c0,0,0,0,0,0c0,0-0.1,0.1-0.1,0.1c-0.1,0.1-0.3,0.2-0.4,0.2    c-0.1,0-0.1,0.1-0.2,0.1c-0.2,0-0.3,0.1-0.5,0.1c-0.1,0-0.2,0-0.2,0c-0.3,0-0.6,0.1-0.9,0.1c0,0-0.1,0-0.1,0c0,0-0.1,0-0.1,0    C8.4,23.2,6,21.8,6,21z M9.8,30.2c-0.5-0.5,0.1-3,1.8-5c0.1,0,0.1,0,0.2,0c0.2,0,0.5,0,0.7-0.1c0.1,0,0.2,0,0.3,0    c0.2,0,0.4-0.1,0.5-0.1c0.1,0,0.2,0,0.3-0.1c0.2-0.1,0.3-0.1,0.5-0.2c0.1,0,0.1,0,0.2-0.1c0.2-0.1,0.4-0.2,0.6-0.3c0,0,0,0,0,0    c0.2,0.3,0.4,0.5,0.7,0.7c0,0,0,0,0,0c-0.1,0.2-0.2,0.4-0.3,0.6c0,0.1,0,0.1-0.1,0.2c-0.1,0.2-0.1,0.3-0.2,0.5    c0,0.1,0,0.2-0.1,0.3c0,0.2-0.1,0.3-0.1,0.5c0,0.1,0,0.2,0,0.3c0,0.2,0,0.4-0.1,0.7c0,0.1,0,0.1,0,0.2    C12.8,30.1,10.4,30.7,9.8,30.2z M21.2,28.8C21.2,31.6,19.8,34,19,34s-2.2-2.4-2.2-5.2c0,0,0-0.1,0-0.1c0,0,0-0.1,0-0.1    c0-0.3,0-0.6,0.1-0.9c0-0.1,0-0.2,0-0.2c0-0.2,0.1-0.4,0.1-0.5c0-0.1,0-0.2,0.1-0.2c0.1-0.2,0.1-0.3,0.2-0.4c0,0,0.1-0.1,0.1-0.1    c0,0,0,0,0,0c1.1,0.3,2.2,0.3,3.2,0c0,0,0,0,0,0c0,0,0.1,0.1,0.1,0.1c0.1,0.1,0.1,0.3,0.2,0.4c0,0.1,0.1,0.1,0.1,0.2    c0,0.2,0.1,0.3,0.1,0.5c0,0.1,0,0.2,0,0.2c0,0.3,0.1,0.6,0.1,0.9c0,0,0,0.1,0,0.1C21.2,28.7,21.2,28.7,21.2,28.8z M28.2,30.2    L28.2,30.2c-0.5,0.5-3-0.1-5-1.8c0-0.1,0-0.2,0-0.2c0-0.2,0-0.5-0.1-0.7c0-0.1,0-0.2,0-0.3c0-0.2-0.1-0.4-0.1-0.5    c0-0.1,0-0.2-0.1-0.3c-0.1-0.2-0.1-0.3-0.2-0.5c0-0.1,0-0.1-0.1-0.2c-0.1-0.2-0.2-0.4-0.3-0.6c0,0,0,0,0,0    c0.3-0.2,0.5-0.4,0.7-0.7c0,0,0,0,0,0c0.2,0.1,0.4,0.2,0.6,0.3c0.1,0,0.1,0,0.2,0.1c0.2,0.1,0.3,0.1,0.5,0.2c0.1,0,0.2,0,0.3,0.1    c0.2,0,0.3,0.1,0.5,0.1c0.1,0,0.2,0,0.3,0c0.2,0,0.4,0,0.7,0.1c0.1,0,0.1,0,0.2,0C28.1,27.2,28.7,29.6,28.2,30.2z M26.8,23.2    c0,0-0.1,0-0.1,0c0,0-0.1,0-0.1,0c-0.3,0-0.6,0-0.9-0.1c-0.1,0-0.2,0-0.2,0c-0.2,0-0.4-0.1-0.5-0.1c-0.1,0-0.2,0-0.2-0.1    c-0.2-0.1-0.3-0.1-0.4-0.2c0,0-0.1,0-0.1-0.1c0,0,0,0,0,0c0.2-0.5,0.3-1.1,0.3-1.6c0-0.5-0.1-1.1-0.3-1.6c0,0,0,0,0,0    c0,0,0.1-0.1,0.1-0.1c0.1-0.1,0.3-0.2,0.4-0.2c0.1,0,0.1-0.1,0.2-0.1c0.2,0,0.3-0.1,0.5-0.1c0.1,0,0.2,0,0.2,0    c0.3,0,0.6-0.1,0.9-0.1c0,0,0.1,0,0.1,0c0,0,0.1,0,0.1,0c2.8,0.1,5.2,1.4,5.2,2.2S29.6,23.2,26.8,23.2z"/>
<path d="M95,64H82V53.4l3.4-3.4c1.1-0.1,5.4-0.8,7.3-4.8c2.1-4.2,1-11.1,0.9-11.4c-0.1-0.3-0.3-0.6-0.5-0.7    c-0.3-0.1-0.6-0.1-0.9,0c-0.3,0.1-6.4,3.4-8.5,7.6c-1.7,3.3-0.6,6.6,0.1,8L82,50.6V35.8c1.6-0.7,2.6-2.9,3-5.1    c1.4,1,3.1,1.7,4.5,1.7c0.8,0,1.5-0.2,2.1-0.8c0,0,0,0,0,0c1.5-1.5,0.6-4.4-0.9-6.6c2.6-0.5,5.3-1.9,5.3-4c0-2.1-2.7-3.5-5.3-4    c1.5-2.2,2.4-5.1,0.9-6.6c-1.5-1.5-4.4-0.6-6.6,0.9C84.5,8.7,83.1,6,81,6s-3.5,2.7-4,5.3c-2.2-1.5-5.1-2.4-6.6-0.9    c-1.5,1.5-0.6,4.4,0.9,6.6c-2.6,0.5-5.3,1.9-5.3,4s2.7,3.5,5.3,4c-1.5,2.2-2.4,5.1-0.9,6.6c0.5,0.5,1.3,0.8,2.1,0.8    c1.4,0,3.1-0.7,4.5-1.7c0.4,2.2,1.4,4.4,3,5.1v19.8l-1.8-1.8c0.7-1.5,1.7-4.7,0.1-8c-2.1-4.2-8.2-7.5-8.5-7.6    c-0.3-0.1-0.6-0.2-0.9,0c-0.3,0.1-0.5,0.4-0.5,0.7c0,0.3-1.1,7.2,0.9,11.4c2,3.9,6.3,4.6,7.3,4.8l3.4,3.4V64H67c-0.6,0-1,0.4-1,1    v6c0,0.6,0.4,1,1,1h0.1L69,93.1c0,0.5,0.5,0.9,1,0.9h3.4c1.4,0,2.6-0.9,3-2.2c0.2-0.5,0.6-0.8,1.1-0.8h6.8c0.5,0,1,0.3,1.1,0.8    c0.4,1.3,1.7,2.2,3,2.2H92c0.5,0,0.9-0.4,1-0.9L94.9,72H95c0.6,0,1-0.4,1-1v-6C96,64.4,95.6,64,95,64z M85.6,41.6    c1.3-2.6,4.5-4.8,6.3-6c0.2,2.1,0.3,6.1-0.9,8.7c-1.3,2.6-4,3.4-5.3,3.6C85.1,46.8,84.3,44.2,85.6,41.6z M71.1,49.3    c-1.3-2.6-1.1-6.6-0.9-8.7c1.8,1.1,5.1,3.4,6.3,6c1.3,2.6,0.4,5.2-0.1,6.3C75.1,52.7,72.4,52,71.1,49.3z M82.4,24    c-0.1,0.1-0.2,0.1-0.3,0.1c-0.7,0.2-1.4,0.2-2.2,0c-0.1,0-0.2-0.1-0.3-0.1c0,0,0,0,0,0c0,0,0,0,0,0c-0.7-0.3-1.2-0.8-1.5-1.5    c0,0,0,0,0,0c0,0,0,0,0,0c-0.1-0.1-0.1-0.2-0.1-0.3c0,0,0,0,0,0c-0.1-0.4-0.2-0.7-0.2-1.1s0.1-0.7,0.2-1.1c0-0.1,0.1-0.2,0.1-0.3    c0,0,0,0,0,0c0,0,0,0,0,0c0.3-0.7,0.8-1.2,1.5-1.5c0,0,0,0,0,0c0,0,0,0,0,0c0.1-0.1,0.2-0.1,0.3-0.1c0.7-0.2,1.4-0.2,2.2,0    c0.1,0,0.2,0.1,0.3,0.1c0,0,0,0,0,0c0,0,0,0,0,0c0.7,0.3,1.2,0.8,1.5,1.5c0,0,0,0,0,0c0,0,0,0,0,0c0.1,0.1,0.1,0.2,0.1,0.3    c0.1,0.4,0.2,0.7,0.2,1.1s-0.1,0.7-0.2,1.1c0,0.1-0.1,0.2-0.1,0.3c0,0,0,0,0,0c0,0,0,0,0,0C83.6,23.1,83.1,23.6,82.4,24    C82.4,24,82.4,24,82.4,24C82.4,24,82.4,24,82.4,24z M90.2,30.2L90.2,30.2c-0.5,0.5-3-0.1-5-1.8c0-0.1,0-0.2,0-0.2    c0-0.2,0-0.5-0.1-0.7c0-0.1,0-0.2,0-0.3c0-0.2-0.1-0.4-0.1-0.5c0-0.1,0-0.2-0.1-0.3c-0.1-0.2-0.1-0.3-0.2-0.5c0-0.1,0-0.1-0.1-0.2    c-0.1-0.2-0.2-0.4-0.3-0.6c0,0,0,0,0,0c0.3-0.2,0.5-0.4,0.7-0.7c0,0,0,0,0,0c0.2,0.1,0.4,0.2,0.6,0.3c0.1,0,0.1,0,0.2,0.1    c0.2,0.1,0.3,0.1,0.5,0.2c0.1,0,0.2,0,0.3,0.1c0.2,0,0.3,0.1,0.5,0.1c0.1,0,0.2,0,0.3,0c0.2,0,0.4,0,0.7,0.1c0.1,0,0.1,0,0.2,0    C90.1,27.2,90.7,29.6,90.2,30.2z M94,21c0,0.8-2.4,2.2-5.2,2.2c0,0-0.1,0-0.1,0c0,0-0.1,0-0.1,0c-0.3,0-0.6,0-0.9-0.1    c-0.1,0-0.2,0-0.2,0c-0.2,0-0.4-0.1-0.5-0.1c-0.1,0-0.2,0-0.2-0.1c-0.2-0.1-0.3-0.1-0.4-0.2c0,0-0.1,0-0.1-0.1c0,0,0,0,0,0    c0.2-0.5,0.3-1.1,0.3-1.6c0-0.5-0.1-1.1-0.3-1.6c0,0,0,0,0,0c0,0,0.1-0.1,0.1-0.1c0.1-0.1,0.3-0.2,0.4-0.2c0.1,0,0.1-0.1,0.2-0.1    c0.2,0,0.3-0.1,0.5-0.1c0.1,0,0.2,0,0.2,0c0.3,0,0.6-0.1,0.9-0.1c0,0,0.1,0,0.1,0c0,0,0.1,0,0.1,0C91.6,18.8,94,20.2,94,21z     M90.2,11.8c0.5,0.5-0.1,3-1.8,5c-0.1,0-0.1,0-0.2,0c-0.2,0-0.5,0-0.7,0.1c-0.1,0-0.2,0-0.3,0c-0.2,0-0.4,0.1-0.5,0.1    c-0.1,0-0.2,0-0.3,0.1c-0.2,0.1-0.3,0.1-0.5,0.2c-0.1,0-0.1,0-0.2,0.1c-0.2,0.1-0.4,0.2-0.6,0.3c0,0,0,0,0,0    c-0.2-0.3-0.4-0.5-0.7-0.7c0,0,0,0,0,0c0.1-0.2,0.2-0.4,0.3-0.6c0-0.1,0-0.1,0.1-0.2c0.1-0.2,0.1-0.3,0.2-0.5c0-0.1,0-0.2,0.1-0.3    c0-0.2,0.1-0.3,0.1-0.5c0-0.1,0-0.2,0-0.3c0-0.2,0-0.4,0.1-0.7c0-0.1,0-0.1,0-0.2C87.2,11.9,89.6,11.3,90.2,11.8z M78.8,13.2    C78.8,10.4,80.2,8,81,8s2.2,2.4,2.2,5.2c0,0,0,0.1,0,0.1c0,0,0,0.1,0,0.1c0,0.3,0,0.6-0.1,0.9c0,0.1,0,0.2,0,0.2    c0,0.2-0.1,0.4-0.1,0.5c0,0.1,0,0.2-0.1,0.2c-0.1,0.2-0.1,0.3-0.2,0.4c0,0-0.1,0.1-0.1,0.1c0,0,0,0,0,0c-0.5-0.2-1.1-0.3-1.6-0.3    c-0.5,0-1.1,0.1-1.6,0.3c0,0,0,0,0,0c0,0-0.1-0.1-0.1-0.1c-0.1-0.1-0.1-0.3-0.2-0.4c0-0.1-0.1-0.1-0.1-0.2c0-0.2-0.1-0.3-0.1-0.5    c0-0.1,0-0.2,0-0.2c0-0.3-0.1-0.6-0.1-0.9c0,0,0-0.1,0-0.1C78.8,13.3,78.8,13.3,78.8,13.2z M71.8,11.8c0.5-0.5,3,0.1,5,1.8    c0,0.1,0,0.2,0,0.2c0,0.2,0,0.5,0.1,0.7c0,0.1,0,0.2,0,0.3c0,0.2,0.1,0.4,0.1,0.5c0,0.1,0,0.2,0.1,0.3c0.1,0.2,0.1,0.3,0.2,0.5    c0,0.1,0,0.1,0.1,0.2c0.1,0.2,0.2,0.4,0.3,0.6c0,0,0,0,0,0c-0.3,0.2-0.5,0.4-0.7,0.7c0,0,0,0,0,0c-0.2-0.1-0.4-0.2-0.6-0.3    c-0.1,0-0.1,0-0.2-0.1c-0.2-0.1-0.3-0.1-0.5-0.2c-0.1,0-0.2,0-0.3-0.1c-0.2,0-0.3-0.1-0.5-0.1c-0.1,0-0.2,0-0.3,0    c-0.2,0-0.4,0-0.7-0.1c-0.1,0-0.1,0-0.2,0C71.9,14.8,71.3,12.4,71.8,11.8z M68,21c0-0.8,2.4-2.2,5.2-2.2c0,0,0.1,0,0.1,0    c0,0,0.1,0,0.1,0c0.3,0,0.6,0,0.9,0.1c0.1,0,0.2,0,0.2,0c0.2,0,0.4,0.1,0.5,0.1c0.1,0,0.2,0,0.2,0.1c0.2,0.1,0.3,0.1,0.4,0.2    c0,0,0.1,0,0.1,0.1c0,0,0,0,0,0c-0.2,0.5-0.3,1.1-0.3,1.6s0.1,1.1,0.3,1.6c0,0,0,0,0,0c0,0-0.1,0.1-0.1,0.1    c-0.1,0.1-0.3,0.2-0.4,0.2c-0.1,0-0.1,0.1-0.2,0.1c-0.2,0-0.3,0.1-0.5,0.1c-0.1,0-0.2,0-0.2,0c-0.3,0-0.6,0.1-0.9,0.1    c0,0-0.1,0-0.1,0c0,0-0.1,0-0.1,0C70.4,23.2,68,21.8,68,21z M71.8,30.2c-0.5-0.5,0.1-3,1.8-5c0.1,0,0.1,0,0.2,0    c0.2,0,0.5,0,0.7-0.1c0.1,0,0.2,0,0.3,0c0.2,0,0.4-0.1,0.5-0.1c0.1,0,0.2,0,0.3-0.1c0.2-0.1,0.3-0.1,0.5-0.2c0.1,0,0.1,0,0.2-0.1    c0.2-0.1,0.4-0.2,0.6-0.3c0,0,0,0,0,0c0.2,0.3,0.4,0.5,0.7,0.7c0,0,0,0,0,0c-0.1,0.2-0.2,0.4-0.3,0.6c0,0.1,0,0.1-0.1,0.2    c-0.1,0.2-0.1,0.3-0.2,0.5c0,0.1,0,0.2-0.1,0.3c0,0.2-0.1,0.3-0.1,0.5c0,0.1,0,0.2,0,0.3c0,0.2,0,0.4-0.1,0.7c0,0.1,0,0.1,0,0.2    C74.8,30.1,72.4,30.7,71.8,30.2z M78.8,28.8c0,0,0-0.1,0-0.1c0,0,0-0.1,0-0.1c0-0.3,0-0.6,0.1-0.9c0-0.1,0-0.2,0-0.2    c0-0.2,0.1-0.4,0.1-0.5c0-0.1,0-0.2,0.1-0.2c0.1-0.2,0.1-0.3,0.2-0.4c0,0,0.1-0.1,0.1-0.1c0,0,0,0,0,0c1.1,0.3,2.2,0.3,3.2,0    c0,0,0,0,0,0c0,0,0.1,0.1,0.1,0.1c0.1,0.1,0.1,0.3,0.2,0.4c0,0.1,0.1,0.1,0.1,0.2c0,0.2,0.1,0.3,0.1,0.5c0,0.1,0,0.2,0,0.2    c0,0.3,0.1,0.6,0.1,0.9c0,0,0,0.1,0,0.1c0,0,0,0.1,0,0.1C83.2,31.6,81.8,34,81,34S78.8,31.6,78.8,28.8z M68,66h26v4H68V66z     M91.1,92h-2.5c-0.5,0-1-0.3-1.1-0.8c-0.4-1.3-1.7-2.2-3-2.2h-6.8c-1.4,0-2.6,0.9-3,2.2c-0.2,0.5-0.6,0.8-1.1,0.8h-2.5l-1.8-20    h23.8L91.1,92z"/>
</g>
</g>
<g id="rose"/>
<g id="garden"/>
<g id="fance"/>
<g id="floral"/>
<g id="sunflower"/>
<g id="sprinkle"/>
<g id="water_hose"/>
<g id="planting"/>
<g id="fertilizer"/>
<g id="bee"/>
<g id="butterfly"/>
<g id="shovel"/>
<g id="ladybug"/>
<g id="watering"/>
<g id="hanging_pot"/>
<g id="green_house"/>
</svg>